<svg width="21" height="21" viewBox="0 0 21 21" fill="none" xmlns="http://www.w3.org/2000/svg">
<path fill-rule="evenodd" clip-rule="evenodd" d="M20.7523 10.5C20.7523 4.87853 16.1366 0.321426 10.4427 0.321426C4.74888 0.321426 0.133118 4.87853 0.133118 10.5C0.133118 16.1215 4.74888 20.6786 10.4427 20.6786C16.1366 20.6786 20.7523 16.1215 20.7523 10.5ZM1.67956 10.5C1.67956 5.72175 5.60296 1.84821 10.4427 1.84821C15.2825 1.84821 19.2059 5.72175 19.2059 10.5C19.2059 15.2782 15.2825 19.1518 10.4427 19.1518C5.60296 19.1518 1.67956 15.2782 1.67956 10.5ZM9.6695 9.7366V5.4182H11.2159V9.7366H15.5899V11.2634H11.2159V15.5818H9.6695V11.2634H5.29551V9.7366H9.6695Z" fill="#4CC738"/>
</svg>
