<svg width="20" height="20" viewBox="0 0 20 20" fill="none" xmlns="http://www.w3.org/2000/svg">
<path d="M10.0059 14.3691C9.97011 13.8773 9.76021 13.4812 9.31993 13.1898C9.05883 13.0213 8.76702 12.9211 8.4496 12.9166C7.85062 12.9074 7.24651 12.8892 6.64752 12.9211C5.78232 12.9621 5.17309 13.5131 5.0963 14.2826C5.0963 14.3054 5.09118 14.3282 5.08606 14.3646C5.01439 14.3646 4.94783 14.3646 4.88128 14.3646C4.1543 14.3646 3.42733 14.3646 2.69524 14.3646C2.19352 14.3646 1.83515 14.6651 1.83003 15.0795C1.82491 15.5075 2.17816 15.8172 2.68499 15.8217C3.41197 15.8263 4.13895 15.8217 4.87104 15.8217C4.9376 15.8217 5.00927 15.8217 5.06558 15.8217C5.11678 16.0039 5.14238 16.1723 5.20893 16.3317C5.42907 16.8781 5.99734 17.2515 6.65264 17.2652C7.1902 17.2789 7.72775 17.2697 8.26018 17.2697C9.26361 17.2697 9.91379 16.7415 10.0111 15.8217C10.0879 15.8217 10.1647 15.8217 10.2466 15.8217C12.576 15.8217 14.9105 15.8263 17.2399 15.8172C17.4242 15.8172 17.6238 15.7762 17.7877 15.7033C18.1051 15.5576 18.2433 15.2206 18.1563 14.911C18.0692 14.6059 17.7621 14.3828 17.4088 14.3646C17.3474 14.36 17.2808 14.3646 17.2194 14.3646C14.8951 14.3646 12.5708 14.3646 10.2466 14.3646C10.1595 14.3691 10.0879 14.3691 10.0059 14.3691ZM6.73968 15.8172C6.73968 15.3299 6.73968 14.8564 6.73968 14.3782C7.28235 14.3782 7.81478 14.3782 8.34209 14.3782C8.34209 14.8655 8.34209 15.3345 8.34209 15.8172C7.80454 15.8172 7.28747 15.8172 6.73968 15.8172ZM8.37281 4.18284C8.35745 4.07811 8.35233 3.99159 8.33185 3.90963C8.17827 3.22659 7.54856 2.75302 6.76015 2.73481C6.21236 2.7257 5.65945 2.7257 5.11166 2.73026C4.22086 2.73936 3.58092 3.24936 3.46317 4.04168C3.45805 4.08266 3.44781 4.11909 3.43757 4.17828C3.17647 4.17828 2.91537 4.17373 2.6594 4.17828C2.06041 4.19195 1.67133 4.67462 1.87099 5.15275C1.98874 5.43962 2.28055 5.62631 2.6338 5.63087C2.90002 5.63542 3.17135 5.63087 3.44269 5.63087C3.45293 5.69006 3.46317 5.73105 3.46829 5.77658C3.5758 6.50515 4.14407 7.02425 4.96831 7.06979C5.60826 7.10622 6.25844 7.10622 6.9035 7.06524C7.71239 7.01059 8.2909 6.45051 8.35745 5.73105C8.35745 5.70372 8.36769 5.6764 8.37281 5.63087C8.45472 5.63087 8.5264 5.63087 8.60319 5.63087C11.506 5.63087 14.4036 5.63087 17.3064 5.63087C17.8184 5.63997 18.1767 5.33033 18.1716 4.89775C18.1665 4.55168 17.8952 4.2648 17.5112 4.20105C17.4139 4.18284 17.3064 4.18284 17.204 4.18284C14.3422 4.18284 11.4804 4.18284 8.61855 4.18284C8.53664 4.18284 8.45472 4.18284 8.37281 4.18284ZM5.0963 4.1965C5.64409 4.1965 6.17653 4.1965 6.71408 4.1965C6.71408 4.68373 6.71408 5.1573 6.71408 5.63087C6.16629 5.63087 5.63385 5.63087 5.0963 5.63087C5.0963 5.14819 5.0963 4.67918 5.0963 4.1965ZM9.99059 10.7263C10.0264 11.2591 10.267 11.6689 10.7483 11.9512C11.0145 12.1106 11.3165 12.1834 11.634 12.1834C12.1715 12.1834 12.7091 12.188 13.2415 12.1834C14.1323 12.1789 14.8132 11.6233 14.9002 10.8401C14.9054 10.8128 14.9054 10.7855 14.9105 10.7308C14.977 10.7308 15.0436 10.7308 15.1153 10.7308C15.8729 10.7308 16.6358 10.7354 17.3934 10.7263C17.7621 10.7217 18.0692 10.485 18.1511 10.1753C18.2331 9.86112 18.0795 9.5196 17.7569 9.37844C17.6136 9.31469 17.4395 9.28737 17.2808 9.28737C16.5641 9.27826 15.8525 9.28282 15.1357 9.28282C15.0641 9.28282 14.9975 9.28282 14.9309 9.28282C14.89 9.11889 14.8746 8.96862 14.8183 8.82291C14.6084 8.24005 13.9941 7.83479 13.3029 7.82568C12.7551 7.81657 12.2022 7.82113 11.6544 7.82568C10.7739 7.83023 10.0981 8.37666 10.0008 9.15532C9.99571 9.18719 9.99571 9.22362 9.99059 9.28282C9.91379 9.28282 9.84212 9.28282 9.77045 9.28282C7.44105 9.28282 5.10654 9.28282 2.77715 9.28282C2.63892 9.28282 2.49045 9.28737 2.36246 9.32835C1.98874 9.43764 1.77884 9.77005 1.83515 10.1252C1.88634 10.4485 2.20376 10.7081 2.5826 10.7263C2.66452 10.7308 2.74643 10.7308 2.83346 10.7308C5.13726 10.7308 7.44617 10.7308 9.74997 10.7308C9.82164 10.7263 9.89844 10.7263 9.99059 10.7263ZM11.6442 9.29192C12.192 9.29192 12.7193 9.29192 13.2466 9.29192C13.2466 9.7746 13.2466 10.2482 13.2466 10.7172C12.7039 10.7172 12.1766 10.7172 11.6442 10.7172C11.6442 10.2391 11.6442 9.77005 11.6442 9.29192Z" fill="white"/>
</svg>
