<svg width="20" height="15" viewBox="0 0 20 15" fill="none" xmlns="http://www.w3.org/2000/svg">
<path d="M3.67239 6.32546C3.75164 6.32546 3.8309 6.32546 3.90487 6.32546C8.69709 6.32546 13.4893 6.32546 18.2815 6.32546C18.4136 6.32546 18.5457 6.32546 18.6725 6.35817C19.0635 6.46723 19.3277 6.87071 19.2801 7.26875C19.2273 7.71585 18.9103 8.0321 18.4823 8.05391C18.3978 8.05936 18.3132 8.05936 18.2234 8.05936C13.447 8.05936 8.66539 8.05936 3.88902 8.05936C3.80976 8.05936 3.73579 8.05936 3.65654 8.05936C3.6354 8.09208 3.60899 8.12479 3.58785 8.15206C3.65126 8.18477 3.73051 8.20113 3.78335 8.2502C5.18878 9.69512 6.58894 11.1455 7.99437 12.5904C8.24799 12.8521 8.36951 13.1466 8.26912 13.5119C8.10533 14.1117 7.40261 14.3407 6.93237 13.9481C6.87425 13.899 6.8267 13.8445 6.77386 13.7954C4.87177 11.8325 2.96967 9.8696 1.06758 7.90669C0.597337 7.42142 0.597337 6.9525 1.06229 6.47268C2.98024 4.49341 4.90347 2.50869 6.82141 0.529422C7.07503 0.267701 7.36034 0.147745 7.71434 0.251344C8.28497 0.420372 8.50688 1.13465 8.14231 1.61448C8.08419 1.69081 8.02079 1.75624 7.9521 1.82167C6.56252 3.25569 5.17293 4.6897 3.78335 6.11826C3.73579 6.16734 3.66711 6.20005 3.60899 6.24367C3.6354 6.27639 3.65126 6.30365 3.67239 6.32546Z" fill="white"/>
</svg>
