<svg width="10" height="11" viewBox="0 0 10 11" fill="none" xmlns="http://www.w3.org/2000/svg">
<g clip-path="url(#clip0_2_258)">
<path d="M1.99071 0.5C3.99609 0.5 5.99902 0.5 8.0044 0.5C8.09 0.514677 8.17559 0.529354 8.26119 0.548924C9.29078 0.783757 9.99022 1.63992 9.99266 2.69423C9.99755 4.56556 9.99511 6.43689 9.99266 8.30822C9.99266 8.77055 9.86305 9.19618 9.59159 9.57045C9.1416 10.1918 8.52531 10.4976 7.76229 10.5C5.91832 10.5024 4.0719 10.5 2.22793 10.5C2.18146 10.5 2.13744 10.5 2.09098 10.4976C1.19589 10.456 0.432869 9.89824 0.129616 9.05431C0.0733676 8.87818 0.0440205 8.68982 0 8.50881C0 6.50294 0 4.49951 0 2.49364C0.00733676 2.46184 0.0146735 2.43004 0.0195647 2.39824C0.161409 1.54452 0.630961 0.952544 1.438 0.639432C1.61409 0.570939 1.80729 0.544031 1.99071 0.5ZM4.99878 9.87622C5.92565 9.87622 6.85253 9.87867 7.78185 9.87622C8.68672 9.87378 9.37149 9.19374 9.37149 8.28865C9.37393 6.42955 9.37393 4.57045 9.37149 2.7138C9.37149 1.8136 8.68672 1.12867 7.78919 1.12867C5.9281 1.12622 4.06701 1.12622 2.20592 1.12867C1.31328 1.13112 0.62607 1.8136 0.62607 2.70646C0.623624 4.57045 0.623624 6.43689 0.628516 8.30088C0.628516 8.47456 0.657863 8.65313 0.711666 8.81703C0.931768 9.46771 1.51137 9.87622 2.20592 9.87622C3.13769 9.87622 4.06945 9.87622 4.99878 9.87622ZM4.06701 3.00734C4.06701 3.21526 4.06701 3.41585 4.06701 3.61888C5.31426 3.61888 6.55906 3.61888 7.80631 3.61888C7.80631 3.41341 7.80631 3.21282 7.80631 3.00734C6.55417 3.00734 5.30937 3.00734 4.06701 3.00734ZM7.80386 5.80577C7.80386 5.5954 7.80386 5.39481 7.80386 5.19178C6.55417 5.19178 5.31426 5.19178 4.06701 5.19178C4.06701 5.39726 4.06701 5.59785 4.06701 5.80577C5.3167 5.80577 6.56151 5.80577 7.80386 5.80577ZM7.80386 7.38356C6.55417 7.38356 5.30937 7.38356 4.06701 7.38356C4.06701 7.59149 4.06701 7.79207 4.06701 7.99755C5.31426 7.99755 6.55417 7.99755 7.80386 7.99755C7.80386 7.78474 7.80386 7.5817 7.80386 7.38356ZM3.12301 3.93689C3.30154 3.932 3.4336 3.80724 3.43605 3.62867C3.44094 3.4183 3.44094 3.20548 3.43605 2.99511C3.4336 2.82143 3.30399 2.69423 3.1328 2.68933C2.92248 2.68444 2.70971 2.68444 2.49939 2.68933C2.32086 2.69178 2.19369 2.82387 2.19124 3C2.18635 3.20793 2.18635 3.41585 2.19124 3.62378C2.19369 3.80235 2.32331 3.92955 2.49939 3.93444C2.60455 3.93689 2.70726 3.93444 2.81242 3.93444C2.91269 3.93689 3.01785 3.93933 3.12301 3.93689ZM2.81242 4.87622C2.70482 4.87622 2.59721 4.87378 2.48961 4.87622C2.32086 4.88356 2.19369 5.00832 2.1888 5.17466C2.18391 5.38992 2.18391 5.60519 2.1888 5.818C2.19369 5.98924 2.32086 6.11889 2.4945 6.12133C2.70482 6.12622 2.91758 6.12622 3.1279 6.12133C3.30154 6.11889 3.43116 5.98924 3.4336 5.818C3.43849 5.60763 3.43849 5.39481 3.4336 5.18444C3.43116 5.00587 3.30154 4.88112 3.12301 4.87378C3.0203 4.87378 2.91514 4.87622 2.81242 4.87622ZM2.1888 7.99755C2.19369 8.17613 2.31842 8.30822 2.49694 8.31067C2.70726 8.31556 2.92003 8.31556 3.13035 8.31067C3.30399 8.30822 3.43116 8.17857 3.43605 8.00734C3.44094 7.79697 3.44094 7.58415 3.43605 7.37378C3.4336 7.19521 3.30154 7.068 3.12546 7.06556C2.91758 7.06067 2.70971 7.06067 2.50183 7.06556C2.32331 7.068 2.19614 7.19765 2.19124 7.37622C2.1888 7.48141 2.19124 7.58415 2.19124 7.68933C2.19124 7.79452 2.18391 7.89481 2.1888 7.99755Z" fill="white"/>
</g>
<defs>
<clipPath id="clip0_2_258">
<rect width="10" height="10" fill="white" transform="translate(0 0.5)"/>
</clipPath>
</defs>
</svg>
