<svg width="10" height="15" viewBox="0 0 10 15" fill="none" xmlns="http://www.w3.org/2000/svg">
<path d="M9.99535 2.40784C9.9929 1.25089 9.29346 0.311382 8.26387 0.0536865C8.17828 0.0322119 8.09268 0.0187903 8.00709 0C7.97285 0 7.93617 0 7.90193 0C7.69161 0 7.48129 0 7.27097 0C5.71313 0 4.15284 0 2.59501 0C2.39447 0 2.19148 0 1.99095 0H1.96405V0.00536865C1.78796 0.0510022 1.60454 0.0805297 1.43824 0.153006C0.631201 0.4966 0.161649 1.14621 0.0222502 2.08304C0.0173591 2.11793 0.00757672 2.15283 0.00268555 2.18772C0.00268555 4.38887 0.00268555 10.6138 0.00268555 12.815C0.0467061 13.0163 0.0760531 13.223 0.137193 13.4136C0.425772 14.294 1.1301 14.8899 1.96649 14.9839V15H2.59745C4.15529 15 5.71557 15 7.27341 15H7.90437V14.9946C8.60626 14.9571 9.17608 14.6188 9.59916 13.98C9.87062 13.5693 9.99779 13.1022 10.0002 12.5948C9.99779 10.5413 10.0027 4.46135 9.99535 2.40784ZM9.37172 2.42663C9.37172 2.7058 9.37172 3.05744 9.37172 3.46546H7.89948V0.692555C8.74321 0.751611 9.37172 1.48175 9.37172 2.42663ZM9.37417 10.842H0.62631C0.623864 8.87706 0.623864 6.12294 0.623864 4.15802H9.37172C9.37417 6.12026 9.37417 8.87974 9.37417 10.842ZM7.27097 12.5841H2.59501V11.5345H7.27097V12.5841ZM2.59501 2.41589H7.27097V3.46546H2.59501V2.41589ZM7.27097 0.687187V1.72602H2.59501V0.687187C4.15529 0.684503 5.71313 0.684503 7.27097 0.687187ZM1.96649 0.705977V3.46546H0.623864C0.623864 3.05476 0.623864 2.69775 0.623864 2.41589C0.628755 1.52738 1.19369 0.829456 1.96649 0.705977ZM0.711905 13.1505C0.658103 12.9707 0.628756 12.772 0.628756 12.5841C0.628756 12.3023 0.62631 11.9452 0.62631 11.5345H1.96649V14.294C1.37955 14.2028 0.905107 13.7786 0.711905 13.1505ZM4.99902 14.3155C4.19686 14.3155 3.39716 14.3155 2.59501 14.3155V13.2767H7.27097V14.3155C6.51283 14.3155 5.75715 14.3155 4.99902 14.3155ZM7.90193 14.3074V11.5345H9.37417C9.37417 11.9426 9.37417 12.2942 9.37417 12.5734C9.37172 13.5183 8.74565 14.243 7.90193 14.3074Z" fill="white"/>
</svg>
