<svg width="20" height="20" viewBox="0 0 20 20" fill="none" xmlns="http://www.w3.org/2000/svg">
<path d="M10 0C4.48601 0 0 4.48601 0 10.0001C0 15.5141 4.48601 20 10 20C15.514 20 20 15.514 20 10C20 4.48595 15.514 0 10 0ZM10 18.3175C5.41372 18.3175 1.68246 14.5863 1.68246 10.0001C1.68246 5.41377 5.41372 1.68246 10 1.68246C14.5863 1.68246 18.3175 5.41372 18.3175 10.0001C18.3175 14.5864 14.5863 18.3175 10 18.3175Z" fill="white"/>
<path d="M9.9998 3.75465C8.0044 3.75465 6.38099 5.37806 6.38099 7.37346C6.38099 7.83805 6.75764 8.2147 7.22222 8.2147C7.68681 8.2147 8.06345 7.83805 8.06345 7.37346C8.06345 6.30577 8.93211 5.43712 9.9998 5.43712C11.0675 5.43712 11.9361 6.30577 11.9361 7.37346C11.9361 8.44116 11.0675 9.30981 9.9998 9.30981C9.53521 9.30981 9.15857 9.68646 9.15857 10.151V12.0531C9.15857 12.5177 9.53521 12.8943 9.9998 12.8943C10.4644 12.8943 10.841 12.5177 10.841 12.0531V10.8936C12.4321 10.5134 13.6186 9.07931 13.6186 7.37341C13.6186 5.37806 11.9952 3.75465 9.9998 3.75465Z" fill="white"/>
<path d="M10 16.0899C10.6504 16.0899 11.1777 15.5627 11.1777 14.9123C11.1777 14.2619 10.6504 13.7346 10 13.7346C9.3496 13.7346 8.82234 14.2619 8.82234 14.9123C8.82234 15.5627 9.3496 16.0899 10 16.0899Z" fill="white"/>
</svg>
